HIERARCHY
ROOT Hips
{
  OFFSET 57.8838 95.319 338.509
  CHANNELS 6 Xposition Yposition Zposition Zrotation Xrotation Yrotation
  JOINT LeftUpLeg
  {
    OFFSET 8.64259 1.95398 -2.38835
    CHANNELS 3 Zrotation Xrotation Yrotation
    JOINT LeftLeg
    {
      OFFSET 43.7702 0 0
      CHANNELS 3 Zrotation Xrotation Yrotation
      JOINT LeftFoot
      {
        OFFSET 40.6238 0 0
        CHANNELS 3 Zrotation Xrotation Yrotation
        JOINT LeftToeBase
        {
          OFFSET 12.7242 0 0
          CHANNELS 3 Zrotation Xrotation Yrotation
          End Site
          {
            OFFSET 0 0 0
          }
        }
      }
    }
  }
  JOINT RightUpLeg
  {
    OFFSET -8.2249 1.95398 -2.59336
    CHANNELS 3 Zrotation Xrotation Yrotation
    JOINT RightLeg
    {
      OFFSET 43.5653 0 0
      CHANNELS 3 Zrotation Xrotation Yrotation
      JOINT RightFoot
      {
        OFFSET 40.6238 0 0
        CHANNELS 3 Zrotation Xrotation Yrotation
        JOINT RightToeBase
        {
          OFFSET 12.7242 0 0
          CHANNELS 3 Zrotation Xrotation Yrotation
          End Site
          {
            OFFSET 0 0 0
          }
        }
      }
    }
  }
  JOINT Spine
  {
    OFFSET 0.165834 0.87714 6.61349
    CHANNELS 3 Zrotation Xrotation Yrotation
    JOINT Spine1
    {
      OFFSET 7.38963 1.71661e-005 0
      CHANNELS 3 Zrotation Xrotation Yrotation
      JOINT Spine2
      {
        OFFSET 11.9445 1.14441e-005 0
        CHANNELS 3 Zrotation Xrotation Yrotation
        JOINT Spine3
        {
          OFFSET 14.7254 4.19617e-005 0
          CHANNELS 3 Zrotation Xrotation Yrotation
          JOINT Spine4
          {
            OFFSET 10.9679 0 0
            CHANNELS 3 Zrotation Xrotation Yrotation
            JOINT RightShoulder
            {
              OFFSET 2.46616 -1.6653 3.69651
              CHANNELS 3 Zrotation Xrotation Yrotation
              JOINT RightArm
              {
                OFFSET 13.0012 0 0
                CHANNELS 3 Zrotation Xrotation Yrotation
                JOINT RightForeArm
                {
                  OFFSET 28.7848 1.62311e-005 0
                  CHANNELS 3 Zrotation Xrotation Yrotation
                  JOINT RightHand
                  {
                    OFFSET 26.5688 1.62095e-005 0
                    CHANNELS 3 Zrotation Xrotation Yrotation
                    End Site
                    {
                      OFFSET 0 0 0
                    }
                  }
                }
              }
            }
            JOINT LeftShoulder
            {
              OFFSET 2.38034 -1.29275 -3.7523
              CHANNELS 3 Zrotation Xrotation Yrotation
              JOINT LeftArm
              {
                OFFSET 16.3182 6.07031e-005 0
                CHANNELS 3 Zrotation Xrotation Yrotation
                JOINT LeftForeArm
                {
                  OFFSET 27.0901 0 0
                  CHANNELS 3 Zrotation Xrotation Yrotation
                  JOINT LeftHand
                  {
                    OFFSET 24.5451 1.51738e-005 0
                    CHANNELS 3 Zrotation Xrotation Yrotation
                    End Site
                    {
                      OFFSET 0 0 0
                    }
                  }
                }
              }
            }
            JOINT Neck
            {
              OFFSET 5.0226 -0.0266342 0
              CHANNELS 3 Zrotation Xrotation Yrotation
              JOINT Head
              {
                OFFSET 6.69364 2.86102e-005 0
                CHANNELS 3 Zrotation Xrotation Yrotation
                End Site
                {
                  OFFSET 0 0 0
                }
              }
            }
          }
        }
      }
    }
  }
}
MOTION
Frames:	12
Frame Time:	0.0416667
-308.63 48.422 -272.874 93.261 -44.9399 98.6836 -133.257 -53.1452 88.4343 -139.091 -7.51679 49.1313 -47.8025 -57.4153 10.1341 12.8981 -34.3241 74.8759 159.997 32.1631 113.294 -71.4029 77.4903 -60.3704 -37.1593 27.4823 136.001 28.4966 -7.0947 -116.094 1.15539 5.36309 -90.868 16.1636 1.8401 -2.05373 4.49217 1.74795 -2.1327 -18.0464 2.37218 -1.40577 1.96624 2.3722 -1.40577 131.768 -33.8064 -27.7595 48.7882 -42.5294 52.828 -58.8073 40.0056 -109.089 4.89493 -2.69539 -56.7104 -51.333 -44.5777 138.832 152.952 15.842 -149.015 -63.6031 -9.05119 -75.1208 89.4888 -38.1923 -41.3564 78.2809 8.67574 -3.60409 22.4654 19.705 44.046 
-309.259 48.5699 -273.384 93.0509 -44.8833 98.7681 -134.581 -51.7324 88.9113 -136.499 -6.44875 48.5518 -42.9697 -56.7803 17.2201 14.0359 -33.1438 75.8839 159.626 33.1628 113.862 -72.4009 77.5718 -59.3178 -36.4141 27.2506 135.642 27.8458 -8.76037 -116.139 1.14454 5.38294 -90.8828 16.1236 1.81175 -2.07776 4.45211 1.71857 -2.15546 -18.0859 2.35236 -1.43722 1.92677 2.35236 -1.43723 132.013 -34.1934 -27.6256 46.883 -41.977 52.0654 -59.06 40.2867 -109.592 5.02779 -2.85501 -58.2572 -51.0966 -44.8975 139.035 152.808 15.4481 -148.152 -63.5306 -8.67936 -75.5953 89.8607 -38.1191 -41.0621 78.5128 8.67233 -3.54802 23.604 20.0475 43.85 
-311.135 49.0822 -274.896 92.4025 -44.7055 99.0251 -138.429 -48.4353 90.752 -129.316 -3.05493 46.0905 -30.9252 -53.5703 34.8407 17.1688 -29.4887 78.495 158.502 35.9474 115.483 -75.6521 77.6979 -55.6535 -33.9433 26.2792 134.892 26.1185 -12.9953 -116.757 1.11169 5.4414 -90.9292 16.0057 1.72491 -2.15378 4.33401 1.62847 -2.22759 -18.2021 2.29238 -1.53588 1.81057 2.29238 -1.53589 132.752 -35.3577 -27.2251 41.2174 -40.2311 49.9181 -59.8801 41.2659 -110.996 4.9465 -3.119 -63.0507 -50.3771 -45.8747 139.644 152.344 14.4873 -145.573 -63.1877 -7.50042 -76.7913 90.9762 -37.8736 -40.1654 79.1946 8.68143 -3.3752 27.1783 21.0738 43.2552 
-314.024 49.9659 -277.221 91.3536 -44.4089 99.4296 -143.24 -45.9701 94.516 -119.608 2.36779 41.2766 -19.7763 -47.4308 51.7725 21.3225 -23.634 81.4913 156.873 39.5632 117.646 -81.6695 77.4711 -48.4242 -29.1074 23.8379 135.375 24.1161 -16.8921 -119.666 1.0603 5.52741 -91.0064 15.8324 1.5866 -2.28238 4.16027 1.48465 -2.34996 -18.3727 2.1991 -1.70017 1.63994 2.19911 -1.70017 133.899 -37.1445 -26.6145 32.6931 -37.3348 47.0459 -60.863 43.0189 -113.1 3.44267 -2.64059 -70.5818 -49.2443 -47.4222 140.57 151.448 13.506 -141.686 -62.4321 -5.57854 -78.0359 92.6877 -37.4279 -38.7585 80.2145 8.87355 -3.11058 33.1161 22.5788 42.4156 
-317.893 50.9991 -280.398 89.9225 -43.9888 99.96 -146.497 -46.2038 100.412 -108.415 9.10179 35.1365 -13.404 -40.9858 62.0588 25.8856 -15.8893 84.1399 155.274 43.0299 119.608 -89.5587 76.4892 -38.1309 -18.9201 18.7909 141.159 26.4155 -15.3879 -126.272 0.993074 5.62904 -91.1152 15.627 1.40174 -2.46696 3.95438 1.29185 -2.52623 -18.5742 2.07822 -1.93187 1.43844 2.07824 -1.93188 135.372 -39.4063 -25.8462 22.173 -33.3852 44.1193 -60.7526 45.2974 -116.234 -0.325403 0.0905425 -79.9206 -47.7527 -49.4665 141.734 149.975 12.8484 -136.847 -61.2022 -2.96537 -78.8673 94.867 -36.7438 -36.9227 81.5394 10.074 -2.87983 41.1724 24.045 42.1321 
-322.734 51.8892 -284.648 88.1261 -43.4401 100.592 -145.948 -48.9837 108.482 -95.5954 16.2303 29.1054 -11.282 -36.2672 65.3969 30.591 -5.45424 83.8258 153.565 45.8665 121.567 -93.9341 75.9753 -29.8327 26.1813 27.3232 154.916 62.4245 43.3354 135.511 0.912779 5.73389 -91.2562 15.4142 1.17539 -2.71052 3.74085 1.05498 -2.75959 -18.782 1.93548 -2.23232 1.23064 1.93548 -2.23232 137.088 -41.99 -24.9704 10.4924 -28.6555 41.6843 -58.3155 47.5301 -120.787 -5.94503 5.22774 -88.1974 -45.9556 -51.9282 143.065 147.904 12.5689 -131.423 -59.5054 0.216228 -79.1617 97.3824 -35.7886 -34.7505 83.1659 11.3955 -2.56752 51.353 26.2832 41.9451 
-328.341 51.8588 -291.281 85.9881 -42.7622 101.3 -139.543 -52.5205 119.121 -81.6596 22.0423 23.7257 -10.9745 -33.2645 63.671 35.7519 4.91433 89.3216 149.426 44.9893 127.838 -95.5274 74.604 -19.9897 170.754 1.07711 118.697 -12.5721 -76.0086 -106.921 0.822275 5.83034 -91.4287 15.217 0.913214 -3.01337 3.54277 0.779771 -3.05061 -18.9728 1.77635 -2.60006 1.03982 1.77634 -2.60007 138.959 -44.7454 -24.0351 -1.55378 -23.6002 40.0625 -53.9295 49.3366 -126.122 -12.4229 12.1729 -97.6933 -43.9039 -54.7186 144.505 145.38 12.4625 -125.751 -57.4476 3.77799 -79.0991 100.084 -34.5465 -32.3548 86.0224 -12.0316 -0.339021 80.5559 34.802 13.3139 
-334.593 51.4892 -297.893 83.5446 -41.9625 102.057 -128.171 -56.6676 133.686 -63.1883 28.4166 18.3839 -15.0454 -31.0955 54.3312 42.1585 18.0094 85.7258 145.882 46.1244 132.393 -95.9407 59.379 -5.65768 -134.118 -40.6646 132.115 26.6866 -14.3801 -107.441 0.724453 5.9091 -91.6301 15.0537 0.621898 -3.37178 3.37847 0.473004 -3.39586 -19.1282 1.60605 -3.02956 0.884413 1.60606 -3.02957 140.903 -47.5412 -23.0819 -13.259 -18.7291 39.3204 -49.5207 50.9891 -130.574 -19.491 21.8048 -103.581 -41.6369 -57.7479 146.022 142.738 12.282 -120.121 -55.1109 7.46437 -79.0264 102.804 -33.0263 -29.8626 -108.881 4.53791 -179.41 76.86 -33.2306 -159.673 
-342.326 53.0288 -304.727 80.8451 -41.0574 102.837 -114.946 -58.8198 149.763 -41.7198 34.629 12.3928 -23.211 -28.9442 37.2457 51.1379 32.764 80.6406 140.765 49.5044 137.046 -86.7607 42.38 0.055611 -105.479 -48.9415 167.926 32.4387 4.30545 -107.992 0.622008 5.9641 -91.8561 14.9361 0.308941 -3.77798 3.25964 0.142495 -3.78791 -19.2364 1.4294 -3.5111 0.776242 1.4294 -3.5111 142.847 -50.2748 -22.1468 -24.0801 -14.44 39.3309 -47.0425 53.135 -132.586 -27.6581 32.3771 -105.888 -39.1727 -60.9325 147.615 140.363 11.8962 -114.757 -52.5212 10.9909 -79.2622 105.376 -31.2649 -27.3975 -106.997 34.7684 -174.667 50.2824 -20.4653 168.78 
-351.817 55.6253 -312.812 77.9524 -40.0714 103.619 -96.5697 -59.0427 170.679 -12.9268 39.3769 3.90172 -34.6367 -25.4371 15.7518 66.0314 45.3328 65.9904 137.605 51.3785 139.975 -70.3659 28.9662 3.4388 -96.7467 -43.5661 -167.859 34.2554 10.1025 -108.63 0.517757 5.99239 -92.1006 14.8698 -0.0173252 -4.2205 3.19207 -0.202901 -4.21566 -19.2916 1.25086 -4.03123 0.721052 1.25085 -4.03124 144.727 -52.8693 -21.2638 -33.6604 -10.9371 39.8777 -47.8958 56.1516 -131.128 -38.4234 42.8924 -102.97 -36.5044 -64.1958 149.312 138.577 11.3225 -109.805 -49.6723 14.0862 -80.0091 107.66 -29.3283 -25.0666 -114.1 67.0495 -161.19 40.0911 4.54675 146.738 
-362.565 58.3354 -322.106 74.9405 -39.035 104.378 -90.769 -56.1624 178.79 -0.29343 41.4729 0.0678436 -36.5861 -23.07 -1.51935 84.5956 49.6092 43.5189 143.104 48.7828 137.044 -38.8174 18.7701 4.23033 -104.417 -38.938 -149.282 34.7266 11.2506 -109.499 0.414454 5.99371 -92.3556 14.8555 -0.348037 -4.68463 3.17629 -0.553646 -4.66485 -19.2934 1.07445 -4.57325 0.719232 1.07445 -4.57327 146.483 -55.2719 -20.4678 -41.8397 -8.23759 40.7396 -53.1513 59.7633 -125.419 -53.965 51.6579 -92.9899 -33.5905 -67.4675 151.185 137.57 10.6854 -105.333 -46.5729 16.5312 -81.3362 109.549 -27.3068 -22.9511 -143.322 80.4458 -127.166 38.725 19.8533 140.651 
-373.898 60.5948 -332.152 71.8849 -37.98 105.092 -93.3862 -52.9275 178.292 -1.11282 42.94 0.304416 -31.7654 -22.9917 -13.0267 95.6843 46.7524 26.3269 152.022 44.1906 133.043 -1.91115 21.4385 0.383865 -127.176 -37.8018 -147.02 33.5138 7.46149 -109.593 0.314113 5.97 -92.613 14.8896 -0.674764 -5.15442 3.20877 -0.900656 -5.11986 -19.2457 0.903397 -5.11939 0.766924 0.903401 -5.11939 148.064 -57.4532 -19.7949 -48.6343 -6.23928 41.7452 -63.542 63.07 -114.881 -75.2058 56.4694 -75.4788 -30.3341 -70.6874 153.356 137.378 10.1415 -101.346 -43.2796 18.1825 -83.1701 110.986 -25.299 -21.1007 167.438 82.215 -74.0414 38.3627 28.5427 139.912 
